<?xml version="1.0" encoding="utf-8"?>
<!-- Generator: Adobe Illustrator 17.1.0, SVG Export Plug-In . SVG Version: 6.00 Build 0)  -->
<!DOCTYPE svg PUBLIC "-//W3C//DTD SVG 1.1//EN" "http://www.w3.org/Graphics/SVG/1.1/DTD/svg11.dtd">
<svg version="1.1" id="Layer_1" xmlns="http://www.w3.org/2000/svg" xmlns:xlink="http://www.w3.org/1999/xlink" x="0px" y="0px"
	 viewBox="0 0 100 100" enable-background="new 0 0 100 100" xml:space="preserve">
<path fill="#5D5D5D" d="M99.9,49.9c0,4.3-0.5,8.5-1.6,12.5c-1.1,4.4-2.9,8.6-5.1,12.5c-0.2,0.3-0.3,0.6-0.5,0.9
	c-1.5,2.6-3.3,5-5.3,7.2c-0.8,0.9-1.6,1.8-2.5,2.6c-0.6,0.6-1.3,1.2-1.9,1.8c-2.5,2.2-5.2,4.1-8.1,5.8l0-0.1
	c1.5-4.1,1.7-8.6,0.6-12.8l-0.7-2.5c1-0.9,2-1.9,3-3c1.5-1.7,2.8-3.5,4-5.4c1.4-2.2,2.5-4.6,3.4-7.1c1.4-3.9,2.1-8.1,2.1-12.5
	s-0.7-8.6-2.1-12.5c-1.6-4.7-4.2-8.9-7.4-12.5c-0.9-1-1.9-2-3-3c-3.6-3.2-7.8-5.8-12.5-7.4c-3.9-1.4-8.1-2.1-12.5-2.1
	c0,0-0.1,0-0.4,0c-20.5,0-37.1,16.6-37.1,37.1v0.4c0,4.4,0.7,8.6,2.1,12.5c0.9,2.5,2,4.9,3.4,7.1c0.8,1.3,1.6,2.5,2.5,3.6
	c0.5,0.6,1,1.2,1.5,1.8c0.9,1,1.9,2,3,3c0.6,0.5,1.2,1,1.8,1.5c1.1,0.9,2.4,1.7,3.6,2.5c2.2,1.4,4.6,2.5,7.1,3.4
	c1.6,0.6,4.1,1,6.4,1.4c4.6,0.7,9-2.9,8.7-7.6c-0.1-1.2-0.5-2.3-1.4-3.1l-0.1-0.1c-0.7-0.6-1.6-0.9-2.5-1c-4-0.2-7.8-1.4-11.1-3.3
	c-0.9-0.5-1.8-1.1-2.7-1.8c-1.8-1.4-3.4-2.9-4.7-4.7c-0.6-0.8-1.2-1.7-1.8-2.7c-2.1-3.7-3.3-7.9-3.3-12.5c0-4.5,1.2-8.8,3.3-12.5
	c1.7-2.9,3.9-5.4,6.5-7.4c0.8-0.6,1.7-1.2,2.7-1.8C41.1,26.2,45.4,25,50,25s8.8,1.2,12.5,3.3c3.8,2.2,7,5.4,9.2,9.2
	c0,0,0,0.1,0.1,0.1c3.1,5.5-0.9,12.4-7.3,12.4h-1.9c0-7.2-6-12.9-13.3-12.5c-6.2,0.4-11.3,5.4-11.7,11.7C37,56.4,42.8,62.4,50,62.4
	c3.4,0,6.7,0.2,9.9,0.7c1.6,0.2,2.9,1.2,3.6,2.7l0.1,0.2c4.5,9.5,4.5,20.5,0,30l-0.1,0.2c-0.7,1.4-2,2.5-3.5,2.8
	c-3.2,0.7-6.6,1-10,1c-4.3,0-8.5-0.5-12.5-1.6c-4.1-1.1-8.1-2.6-11.7-4.7c-0.3-0.1-0.5-0.3-0.8-0.4c-0.3-0.2-0.6-0.3-0.9-0.5
	c-0.9-0.6-1.8-1.2-2.7-1.8c-1.6-1.1-3.1-2.3-4.5-3.5c-0.7-0.6-1.3-1.2-1.9-1.8c-0.2-0.2-0.5-0.5-0.7-0.7c-0.6-0.6-1.2-1.3-1.8-1.9
	c-1.3-1.4-2.4-2.9-3.5-4.5c-0.6-0.9-1.2-1.8-1.8-2.7c-0.2-0.3-0.4-0.6-0.5-0.9c-0.1-0.2-0.3-0.5-0.4-0.8c-2-3.7-3.6-7.6-4.7-11.7
	c-1-4-1.6-8.2-1.6-12.5V0h50c4.3,0,8.5,0.5,12.5,1.6c4.4,1.1,8.6,2.9,12.5,5.1c2.9,1.7,5.6,3.6,8.1,5.8c1.6,1.4,3,2.8,4.4,4.4
	c2.2,2.5,4.1,5.2,5.8,8.1c2.2,3.9,4,8.1,5.1,12.5C99.4,41.5,99.9,45.6,99.9,49.9z"/>
</svg>
